<svg width="16" height="15" viewBox="0 0 16 15" fill="none" xmlns="http://www.w3.org/2000/svg">
<path d="M1 6.06036C1 4.9558 1.89543 4.06036 3 4.06036H12.9999C14.1045 4.06036 14.9999 4.95579 14.9999 6.06036V12.2615C14.9999 13.3661 14.1045 14.2615 12.9999 14.2615H3C1.89543 14.2615 1 13.3661 1 12.2615V6.06036Z" stroke="#686781" stroke-linecap="round" stroke-linejoin="round"/>
<path d="M11.0604 4.06035C11.0604 3.2487 10.738 2.47028 10.164 1.89636C9.59012 1.32243 8.81171 1 8.00005 1C7.18839 1 6.40998 1.32243 5.83605 1.89636C5.26213 2.47028 4.9397 3.2487 4.9397 4.06035" stroke="#686781" stroke-linecap="round" stroke-linejoin="round"/>
<path d="M1 8.14081L6.97986 8.14081" stroke="#686781" stroke-linecap="round" stroke-linejoin="round"/>
<path d="M9.02002 8.14081H14.9998" stroke="#686781" stroke-linecap="round" stroke-linejoin="round"/>
<path d="M7.99985 9.67034C7.7293 9.67034 7.46983 9.56286 7.27852 9.37155C7.08721 9.18024 6.97974 8.92077 6.97974 8.65022V7.6301C6.97974 7.35955 7.08721 7.10008 7.27852 6.90877C7.46983 6.71746 7.7293 6.60999 7.99985 6.60999C8.27041 6.60999 8.52988 6.71746 8.72119 6.90877C8.9125 7.10008 9.01997 7.35955 9.01997 7.6301V8.65022C9.01997 8.92077 8.9125 9.18024 8.72119 9.37155C8.52988 9.56286 8.27041 9.67034 7.99985 9.67034Z" stroke="#686781" stroke-linecap="round" stroke-linejoin="round"/>
</svg>